<svg width="18" height="18" viewBox="0 0 18 18" fill="none" xmlns="http://www.w3.org/2000/svg">
<path fill-rule="evenodd" clip-rule="evenodd" d="M17 7.08074C17 12.1506 11.7665 16.5146 10.043 17.8143C9.71763 18.0597 9.28237 18.0597 8.95696 17.8143C7.23351 16.5146 2 12.1506 2 7.08074C2 3.17015 5.35786 0 9.5 0C13.6421 0 17 3.17015 17 7.08074ZM12.3845 7.39686C12.3845 8.96807 11.093 10.2418 9.49985 10.2418C7.90672 10.2418 6.61523 8.96807 6.61523 7.39686C6.61523 5.82564 7.90672 4.55192 9.49985 4.55192C11.093 4.55192 12.3845 5.82564 12.3845 7.39686Z" fill="#1B54DD"/>
</svg>
