<svg width="18" height="18" viewBox="0 0 18 18" fill="none" xmlns="http://www.w3.org/2000/svg">
<path d="M5 3L5 0" stroke="#1B54DD" stroke-width="2"/>
<path d="M13 3L13 0" stroke="#1B54DD" stroke-width="2"/>
<path fill-rule="evenodd" clip-rule="evenodd" d="M18 6V18H0V6H18ZM18 4H0V2H18V4ZM5 10C5 10.5523 4.55228 11 4 11C3.44772 11 3 10.5523 3 10C3 9.44772 3.44772 9 4 9C4.55228 9 5 9.44772 5 10ZM10 10C10 10.5523 9.55228 11 9 11C8.44771 11 8 10.5523 8 10C8 9.44772 8.44771 9 9 9C9.55228 9 10 9.44772 10 10ZM14 11C14.5523 11 15 10.5523 15 10C15 9.44772 14.5523 9 14 9C13.4477 9 13 9.44772 13 10C13 10.5523 13.4477 11 14 11ZM5 14C5 14.5523 4.55228 15 4 15C3.44772 15 3 14.5523 3 14C3 13.4477 3.44772 13 4 13C4.55228 13 5 13.4477 5 14ZM9 15C9.55228 15 10 14.5523 10 14C10 13.4477 9.55228 13 9 13C8.44771 13 8 13.4477 8 14C8 14.5523 8.44771 15 9 15ZM15 14C15 14.5523 14.5523 15 14 15C13.4477 15 13 14.5523 13 14C13 13.4477 13.4477 13 14 13C14.5523 13 15 13.4477 15 14Z" fill="#1B54DD"/>
</svg>
